<mxfile host="app.diagrams.net" modified="2024-04-09T15:57:12.331Z" agent="Mozilla/5.0 (Macintosh; Intel Mac OS X 10_15_7) AppleWebKit/537.36 (KHTML, like Gecko) Chrome/123.0.0.0 Safari/537.36" version="24.2.2" etag="ANma6j3BqbQ3yGInT-Zg" type="github">
  <diagram name="Page-1" id="9vS5exvRgTC7DhcpLxv5">
    <mxGraphModel>
      <root>
        <mxCell id="0" />
        <mxCell id="1" parent="0" />
      </root>
    </mxGraphModel>
  </diagram>
</mxfile>
